<svg width="20" height="16" viewBox="0 0 20 16" fill="#008DE4" xmlns="http://www.w3.org/2000/svg">
<path d="M2.9045 6C0.833543 6 0.536737 7.47275 0.340778 8.36245C0.0841191 9.52803 0 10 0 10H8.0955C10.1665 10 10.4633 8.52725 10.6592 7.63755C10.9159 6.47197 11 6 11 6L2.9045 6Z" fill="#008DE4"/>
<path d="M13.1163 0H5.85079L5.24866 3.32478L11.8049 3.33259C15.0339 3.33259 15.9887 4.4906 15.9614 6.4131C15.9474 7.398 15.5152 9.06278 15.3286 9.60252C14.8309 11.0412 13.809 12.683 9.97656 12.6765L3.60345 12.6739L3 16H10.2493C12.8063 16 13.8946 15.7063 15.0453 15.1804C17.5983 14.0159 19.1175 11.5268 19.7257 8.27833C20.6322 3.44106 19.5035 0 13.1163 0Z" fill="#008DE4"/>
</svg>
